<svg width="249" height="59.99999999999999" xmlns="http://www.w3.org/2000/svg" xmlns:xlink="http://www.w3.org/1999/xlink" xml:space="preserve" version="1.1">
 <g>
  <title>Layer 1</title>
  <g id="XGP_2020_White_1_">
   <g id="svg_2">
    <defs>
     <rect height="42.3" width="248.1" y="8.9" x="0.4" id="SVGID_1_"/>
    </defs>
    <clipPath id="SVGID_2_">
     <use id="svg_3" xlink:href="#SVGID_1_"/>
    </clipPath>
    <g id="svg_4" clip-path="url(#SVGID_2_)" class="st1">
     <defs>
      <rect height="42.3" width="248.1" y="8.9" x="0.4" id="SVGID_3_"/>
     </defs>
     <clipPath id="SVGID_4_">
      <use id="svg_5" xlink:href="#SVGID_3_"/>
     </clipPath>
     <path id="svg_6" fill="#FFFFFF" clip-path="url(#SVGID_4_)" d="m21.6,25.8c0,0 0,0 0,0c6.4,4.8 17.2,16.7 13.9,20.1c-3.7,3.3 -8.6,5.2 -13.9,5.2s-10.2,-2 -13.9,-5.2c-3.3,-3.3 7.5,-15.2 13.9,-20.1c-0.1,0 0,0 0,0m11,-13.9c-3.2,-1.9 -6.7,-3.1 -11,-3.1c-4.3,0 -7.8,1.2 -11,3.1c0,0 -0.1,0.1 0,0.1c0,0 0.1,0 0.1,0c4.1,-0.9 10.3,2.7 10.9,3c0,0 0,0 0,0c0,0 0,0 0,0c0.6,-0.4 6.8,-3.9 10.9,-3c0,0 0.1,0 0.1,0c0.1,0 0,0 0,-0.1m-25.8,3c0,0 -0.1,0.1 0,0c-4,3.9 -6.3,9.2 -6.3,15.1c0,4.8 1.6,9.3 4.3,12.8c0,0 0.1,0.1 0.1,0c0,0 0,-0.1 0,-0.1c-1.6,-5 6.6,-17.1 10.9,-22.1c0,0 0,0 0,-0.1c0,0 0,-0.1 0,-0.1c-6.5,-6.3 -8.7,-5.7 -9,-5.5m20.6,5.6c0,0 0,0 0,0c0,0.1 0,0.1 0,0.1c4.3,5.1 12.5,17.2 10.9,22.1c0,0 0,0.1 0,0.1c0,0 0.1,0 0.1,0c2.7,-3.6 4.3,-8 4.3,-12.8c0,-5.9 -2.4,-11.2 -6.3,-15c0,0 -0.1,-0.1 -0.1,-0.1c-0.3,-0.2 -2.4,-0.8 -8.9,5.6m66.2,-2.9l-4.4,0l-9.9,25.4l4,0l2.5,-6.6l11.2,0l2.5,6.6l4,0l-9.9,-25.4zm-6.6,15.5l4.4,-11.6l4.4,11.6l-8.8,0zm-9.8,-3.5l0,4.7l0,8.7l0,0l-3.7,0l0,-3.3c-0.9,1.3 -2.1,2.3 -3.5,2.9c-1.4,0.7 -3,1 -4.8,1c-1.8,0 -3.5,-0.3 -4.9,-0.9c-1.5,-0.6 -2.7,-1.5 -3.8,-2.8c-1.1,-1.2 -1.9,-2.6 -2.5,-4.2c-0.6,-1.6 -0.8,-3.4 -0.8,-5.4c0,-2 0.3,-3.8 0.8,-5.4c0.6,-1.6 1.4,-3 2.5,-4.2c1.1,-1.2 2.4,-2.1 3.9,-2.7c1.5,-0.6 3.2,-0.9 5,-0.9c3.1,0 5.7,0.8 7.7,2.4c2,1.6 3.2,3.8 3.6,6.5l0,0l-4,0l0,0c-0.4,-1.7 -1.2,-3 -2.5,-4c-1.3,-1 -3,-1.5 -4.8,-1.5c-2.5,0 -4.5,0.9 -6,2.7c-1.5,1.7 -2.3,4.2 -2.3,7.2s0.8,5.4 2.3,7.2c1.5,1.8 3.6,2.7 6.1,2.7c2.2,0 4.1,-0.7 5.6,-2.1c1.5,-1.3 2.3,-3.1 2.4,-5.1l-7.5,0l0,-3.3l11.2,0l0,-0.2zm62.2,-8.5l0,7.4l12.6,0l0,3.2l-12.6,0l0,7.8l14.3,0l0,3.5l-18.2,0l0,-25.4l18.2,0l0,3.5l-14.3,0zm-7.7,-3.5l0,25.4l-3.7,0l0,-20.1c-0.5,1.4 -1.1,3.2 -1.9,5.2l-5.9,14.9l-3.2,0l0,0l-5.8,-14.9c-0.7,-1.8 -1.3,-3.6 -1.9,-5.2l0,20.1l-3.7,0l0,-25.4l5.3,0l5.2,13.5c1,2.7 1.9,5.1 2.6,7.1c0.8,-2.3 1.6,-4.8 2.6,-7.4l5,-13.2l5.4,0zm49,2.2c-1.5,-1.4 -3.7,-2.2 -6.4,-2.2l-10.8,0l0,25.4l3.9,0l0,-9.4l6.9,0c2.8,0 4.9,-0.7 6.4,-2.2c1.5,-1.4 2.3,-3.4 2.3,-5.8c-0.1,-2.4 -0.8,-4.4 -2.3,-5.8m-13.4,1.2l6.9,0c1.6,0 2.8,0.4 3.6,1.2c0.8,0.8 1.2,1.9 1.2,3.4c0,1.5 -0.4,2.6 -1.2,3.4c-0.8,0.8 -2,1.2 -3.6,1.2l-6.9,0l0,-9.2zm58.6,15c0,2.4 -0.9,4.2 -2.6,5.6c-1.7,1.4 -4.2,2 -7.3,2c-3.3,0 -6,-0.8 -7.8,-2.3c-1.9,-1.5 -2.8,-3.8 -2.8,-6.7l0,0l3.9,0l0,0c0,1.9 0.6,3.3 1.8,4.2c1.1,0.9 2.9,1.4 5.1,1.4c1.9,0 3.3,-0.4 4.3,-1.1c1,-0.7 1.5,-1.8 1.5,-3.1c0,-1.1 -0.4,-2 -1.2,-2.6c-0.8,-0.6 -2.3,-1.1 -4.5,-1.6l-2.2,-0.5c-2.6,-0.5 -4.6,-1.4 -5.9,-2.6c-1.3,-1.2 -2,-2.9 -2,-4.9c0,-2.1 0.8,-3.8 2.4,-5c1.6,-1.2 3.8,-1.9 6.6,-1.9c3.3,0 5.8,0.7 7.5,2.1c1.7,1.4 2.5,3.4 2.6,5.9l0,0l-3.8,0l0,0c-0.1,-1.6 -0.7,-2.8 -1.6,-3.6c-0.9,-0.8 -2.5,-1.1 -4.6,-1.1c-1.6,0 -2.9,0.3 -3.8,0.9c-0.9,0.6 -1.3,1.5 -1.3,2.6c0,1.1 0.4,2 1.2,2.6c0.8,0.6 2.2,1.2 4.3,1.6l2.2,0.5c2.9,0.6 5,1.5 6.3,2.7c1.1,1.3 1.7,2.9 1.7,4.9m22.7,0c0,2.4 -0.9,4.2 -2.6,5.6c-1.7,1.4 -4.2,2 -7.3,2c-3.3,0 -6,-0.8 -7.8,-2.3c-1.9,-1.5 -2.8,-3.8 -2.8,-6.7l0,0l3.9,0l0,0c0,1.9 0.6,3.3 1.8,4.2c1.1,0.9 2.9,1.4 5.1,1.4c1.9,0 3.3,-0.4 4.3,-1.1c1,-0.7 1.5,-1.8 1.5,-3.1c0,-1.1 -0.4,-2 -1.2,-2.6c-0.8,-0.6 -2.3,-1.1 -4.5,-1.6l-2.2,-0.5c-2.6,-0.5 -4.6,-1.4 -5.9,-2.6c-1.3,-1.2 -2,-2.9 -2,-4.9c0,-2.1 0.8,-3.8 2.4,-5c1.6,-1.2 3.8,-1.9 6.6,-1.9c3.3,0 5.8,0.7 7.5,2.1c1.7,1.4 2.5,3.4 2.6,5.9l0,0l-4,0l0,0c-0.1,-1.6 -0.7,-2.8 -1.6,-3.6c-0.9,-0.8 -2.5,-1.1 -4.6,-1.1c-1.6,0 -2.9,0.3 -3.8,0.9c-0.9,0.6 -1.3,1.5 -1.3,2.6c0,1.1 0.4,2 1.2,2.6c0.8,0.6 2.2,1.2 4.3,1.6l2.2,0.5c2.9,0.6 5,1.5 6.3,2.7c1.2,1.3 1.9,2.9 1.9,4.9m-54,-18.4l-4.4,0l-10,25.4l4,0l2.5,-6.6l11.3,0l2.5,6.6l4,0l-9.9,-25.4zm-6.6,15.5l4.4,-11.6l4.4,11.6l-8.8,0z" class="st2"/>
    </g>
   </g>
  </g>
 </g>
</svg>